<svg xmlns="http://www.w3.org/2000/svg" xmlns:xlink="http://www.w3.org/1999/xlink" version="1.1" id="Calque_1" x="0px" y="0px" width="98.4886649874px" height="100px" viewBox="0 0 391.838 397.856" enable-background="new 0 0 391.838 397.856" xml:space="preserve">
<g>
	<path d="M100.896,180.334c0,49.535,40.166,89.711,89.7,89.711c49.545,0,89.7-40.176,89.7-89.711c0-49.514-40.154-89.69-89.7-89.69   C141.062,90.645,100.896,130.82,100.896,180.334z"/>
	<path d="M147.712,32.747c13.375-3.86,27.455-6.018,42.074-6.018c83.682,0,151.541,67.859,151.541,151.531   c0,5.396-0.29,10.708-0.83,15.938l1.619,0.955l49.722-81.514l-11.911-46.941l-26.23,42.085C326.553,44.949,263.425,0,189.787,0   c-27.154,0-52.813,6.309-75.869,17.224l34.396,1.453L147.712,32.747z"/>
	<path d="M336.514,215.613c-16.685,65.576-75.952,114.177-146.727,114.177c-31.542,0-60.844-9.67-85.104-26.188l-0.176,0.124   l49.161,81.846l46.837,12.285l-25.939-42.126c5.021,0.415,10.085,0.768,15.221,0.768c96.984,0,175.966-77.903,178.062-174.378   l-22.91,38.515L336.514,215.613z"/>
	<path d="M90.105,292.187c-31.719-27.786-51.849-68.481-51.849-113.928c0-62.837,38.277-116.75,92.782-139.702l0.249-5.873   l-95.614-4.42L0,61.011l53.716,2.594c-26.22,31.024-42.157,70.951-42.157,114.654c0,67.796,38.069,126.856,93.933,156.968   L81.14,297.417L90.105,292.187z"/>
</g>
</svg>